<svg width="12" height="14" viewBox="0 0 12 14" fill="none" xmlns="http://www.w3.org/2000/svg">
<path fill-rule="evenodd" clip-rule="evenodd" d="M6 0C3.62453 0 0 1 0 1V10C0 12.6197 6 14 6 14C6 14 12 12.6197 12 10V1C12 1 8.37547 0 6 0ZM1 1.77594C1.35117 1.69017 1.80501 1.58457 2.31266 1.47908C3.50394 1.23153 4.92024 1 6 1C7.07976 1 8.49606 1.23153 9.68734 1.47908C10.195 1.58457 10.6488 1.69017 11 1.77594V10C11 10.2457 10.8613 10.5729 10.3998 10.9813C9.94592 11.383 9.29968 11.7521 8.59088 12.0699C7.89221 12.3832 7.18522 12.6235 6.64768 12.7863C6.38041 12.8672 6.15854 12.9279 6.00506 12.968L6 12.9694L5.99494 12.968C5.84146 12.9279 5.61959 12.8672 5.35232 12.7863C4.81478 12.6235 4.10779 12.3832 3.40912 12.0699C2.70032 11.7521 2.05408 11.383 1.60023 10.9813C1.13873 10.5729 1 10.2457 1 10L1 1.77594ZM9 5L8.29289 4.29289L5 7.58579L3.70711 6.29289L3 7L5 9L9 5Z" fill="black"/>
</svg>
