<svg width="96" height="16" viewBox="0 0 96 16" fill="none" xmlns="http://www.w3.org/2000/svg">
<path fill-rule="evenodd" clip-rule="evenodd" d="M10.5863 5.44033L8.00005 1L5.4138 5.44033L0.391602 6.52786L3.8154 10.3597L3.29777 15.4721L8.00005 13.4L12.7023 15.4721L12.1847 10.3597L15.6085 6.52786L10.5863 5.44033Z" fill="#FF7E00"/>
<path fill-rule="evenodd" clip-rule="evenodd" d="M30.5863 5.44033L28.0001 1L25.4138 5.44033L20.3916 6.52786L23.8154 10.3597L23.2978 15.4721L28.0001 13.4L32.7023 15.4721L32.1847 10.3597L35.6085 6.52786L30.5863 5.44033Z" fill="#FF7E00"/>
<path fill-rule="evenodd" clip-rule="evenodd" d="M50.5863 5.44033L48.0001 1L45.4138 5.44033L40.3916 6.52786L43.8154 10.3597L43.2978 15.4721L48.0001 13.4L52.7023 15.4721L52.1847 10.3597L55.6085 6.52786L50.5863 5.44033Z" fill="#FF7E00"/>
<path fill-rule="evenodd" clip-rule="evenodd" d="M70.5863 5.44033L68.0001 1L65.4138 5.44033L60.3916 6.52786L63.8154 10.3597L63.2978 15.4721L68.0001 13.4L72.7023 15.4721L72.1847 10.3597L75.6085 6.52786L70.5863 5.44033Z" fill="#FF7E00"/>
<path fill-rule="evenodd" clip-rule="evenodd" d="M90.5863 5.44033L88.0001 1L85.4138 5.44033L80.3916 6.52786L83.8154 10.3597L83.2978 15.4721L88.0001 13.4L92.7023 15.4721L92.1847 10.3597L95.6085 6.52786L90.5863 5.44033ZM93.7189 7.14185L89.944 6.32441L88.0001 2.98689V12.3072L91.5345 13.8647L91.1454 10.022L93.7189 7.14185Z" fill="#FF7E00"/>
</svg>
