<svg width="14" height="14" viewBox="0 0 14 14" fill="none" xmlns="http://www.w3.org/2000/svg">
<path d="M7.44691 2.22421L7.44705 2.22393L7.44724 2.22358L7.4529 2.21283C7.45854 2.20225 7.46791 2.18503 7.481 2.16213C7.50721 2.11627 7.54808 2.04801 7.60353 1.96485C7.71498 1.79768 7.88216 1.57495 8.10355 1.35355C8.54906 0.908051 9.17938 0.5 10 0.5C10.9257 0.5 11.7979 0.732398 12.4299 1.25911C13.0459 1.77246 13.5 2.62024 13.5 4C13.5 6.71736 12.1976 9.53246 7 13.3799C1.80237 9.53246 0.5 6.71736 0.5 4C0.5 2.62024 0.954078 1.77246 1.57009 1.25911C2.20215 0.732398 3.07429 0.5 4 0.5C4.82062 0.5 5.45095 0.908051 5.89645 1.35355C6.11784 1.57495 6.28503 1.79768 6.39648 1.96485C6.45192 2.04801 6.4928 2.11627 6.51901 2.16213C6.53209 2.18503 6.54146 2.20225 6.54711 2.21283L6.55276 2.22358L6.55309 2.22422L6.55331 2.22465L6.55334 2.2247L6.55348 2.22498L7 3.11803L7.44652 2.22498L7.44667 2.2247L7.44669 2.22465L7.44691 2.22421Z" stroke="#FF7E00"/>
</svg>
