<svg width="29" height="35" viewBox="0 0 29 35" fill="none" xmlns="http://www.w3.org/2000/svg">
<path d="M27.5714 14.5594C27.5714 24.9458 14.2857 33.8484 14.2857 33.8484C14.2857 33.8484 1 24.9458 1 14.5594C1 11.0177 2.39974 7.62108 4.89129 5.11673C7.38285 2.61237 10.7621 1.20544 14.2857 1.20544C17.8093 1.20544 21.1886 2.61237 23.6801 5.11673C26.1717 7.62108 27.5714 11.0177 27.5714 14.5594Z" stroke="#C82132" stroke-width="2" stroke-linecap="round" stroke-linejoin="round"/>
<path d="M14.286 19.0107C16.7319 19.0107 18.7146 17.0177 18.7146 14.5593C18.7146 12.101 16.7319 10.108 14.286 10.108C11.8402 10.108 9.85742 12.101 9.85742 14.5593C9.85742 17.0177 11.8402 19.0107 14.286 19.0107Z" stroke="#C82132" stroke-width="2" stroke-linecap="round" stroke-linejoin="round"/>
</svg>
