<svg width="62" height="62" viewBox="0 0 62 62" fill="none" xmlns="http://www.w3.org/2000/svg">
<g clip-path="url(#clip0_313_374)">
<path d="M53.6887 30.2188C53.6887 48.7944 43.5344 61.9999 31.0001 61.9999C18.4659 61.9999 8.31152 48.7944 8.31152 30.2188C8.31152 17.4526 18.4659 7.10303 31.0001 7.10303C43.5344 7.10303 53.6887 17.4526 53.6887 30.2188Z" fill="#40596B"/>
<path d="M39.2134 26.9113C40.0556 27.9609 40.678 30.8901 40.678 30.8901C40.678 30.8901 36.9067 28.1562 30.5969 26.9113C26.0323 26.0082 20.5158 18.9661 20.5158 18.9661C19.393 31.8054 10.7398 34.3318 8.51855 34.7834C10.0441 50.918 19.515 61.9999 30.9997 61.9999C43.0091 61.9999 52.8339 49.8806 53.6272 32.5255C49.5752 28.8397 39.2134 26.9113 39.2134 26.9113Z" fill="#FFD15C"/>
<path d="M8.61654 26.4111H4.1374C1.85512 26.4111 0 28.2907 0 30.6218V36.8706C0 39.2017 1.85512 41.0812 4.1374 41.0812H9.5685C8.75079 37.7371 8.31142 34.1001 8.31142 30.219C8.31142 28.9131 8.40905 27.6438 8.61654 26.4111Z" fill="#334A5E"/>
<path d="M57.8627 26.4111H53.3836C53.5789 27.6438 53.6887 28.9131 53.6887 30.219C53.6887 34.1001 53.2494 37.7371 52.4316 41.0812H57.8627C60.145 41.0812 62.0001 39.2017 62.0001 36.8706V30.6218C62.0001 28.2907 60.1572 26.4111 57.8627 26.4111Z" fill="#334A5E"/>
<path d="M57.8627 41.0812H55.8001V46.8906H36.5166V51.1013H59.9253V40.5198C59.3272 40.8737 58.6194 41.0812 57.8627 41.0812Z" fill="#F2F2F2"/>
<path d="M37.1267 52.6024H28.0952C27.9121 52.6024 27.7656 52.4559 27.7656 52.2729V45.7311C27.7656 45.5481 27.9121 45.4016 28.0952 45.4016H37.1267C37.3097 45.4016 37.4562 45.5481 37.4562 45.7311V52.2729C37.4562 52.4559 37.3097 52.6024 37.1267 52.6024Z" fill="#40596B"/>
<path d="M32.6602 0H28.6815C14.048 0 2.14842 12.0949 2.0752 26.9724C2.68543 26.6185 3.3811 26.411 4.13779 26.411H6.2248C6.59094 14.1087 16.5256 4.21063 28.6937 4.21063H32.6602C44.8283 4.21063 54.763 14.1087 55.1291 26.411H57.8752C58.3634 26.411 58.8272 26.4965 59.2665 26.6551C59.0224 11.924 47.1839 0 32.6602 0Z" fill="#F2F2F2"/>
</g>
<defs>
<clipPath id="clip0_313_374">
<rect width="62" height="62" fill="white"/>
</clipPath>
</defs>
</svg>
