<svg width="65" height="50" viewBox="0 0 65 50" fill="none" xmlns="http://www.w3.org/2000/svg">
<path d="M46.7386 5.78979H32.0107V36.0701L64.9946 32.2851V19.0364L57.4627 16.5691L46.7386 5.78979Z" fill="#C92032"/>
<path d="M61.5736 32.2851C59.3456 29.9545 56.2178 28.4998 52.7557 28.4998C49.2938 28.4998 46.1658 29.9545 43.9377 32.2851L32.0107 32.2847L37.6596 40.8017L64.995 40.802V32.2851H61.5736Z" fill="#5B5B5B"/>
<path d="M37.6576 0.111816V28.4996L9.41309 32.2849L22.5941 0.112498L37.6576 0.111816Z" fill="#EDEDED"/>
<path d="M18.8289 3.89714V32.2849L0.000976562 28.4996V0.111816H15.0631L18.8289 3.89714Z" fill="#EDEDED"/>
<path d="M22.5953 0.112793H15.0635V14.3059H22.5953V0.112793Z" fill="#C92032"/>
<path d="M37.6603 28.4995H0.000976562V32.2847L19.7722 37.0161L37.6603 32.2845V28.4995Z" fill="#CCCCCC"/>
<path d="M37.6593 32.2839H0V40.801H37.6593V32.2839Z" fill="#B2B2B2"/>
<path d="M12.2402 49.3188L7.15625 40.802L12.2402 32.2852C16.9125 32.2852 20.7136 36.1058 20.7136 40.802C20.7136 45.4982 16.9126 49.3188 12.2402 49.3188Z" fill="#383838"/>
<path d="M3.76758 40.802C3.76758 45.4982 7.56874 49.3188 12.241 49.3188V32.2849C7.56874 32.2851 3.76758 36.1058 3.76758 40.802Z" fill="#4C4C4C"/>
<path d="M12.2415 45.5334L9.41699 40.8018L12.2415 36.0701C14.8371 36.0701 16.9489 38.1927 16.9489 40.8018C16.9489 43.4109 14.8371 45.5334 12.2415 45.5334Z" fill="#CCCCCC"/>
<path d="M7.5332 40.8019C7.5332 43.4108 9.64498 45.5334 12.2406 45.5334V36.0703C9.64482 36.0703 7.5332 38.1929 7.5332 40.8019Z" fill="white"/>
<path d="M52.7558 49.3186L47.6719 40.8019L52.7558 32.2852C57.428 32.2852 61.2291 36.1058 61.2291 40.8019C61.2291 45.498 57.428 49.3186 52.7558 49.3186Z" fill="#383838"/>
<path d="M44.2832 40.802C44.2832 45.4982 48.0844 49.3188 52.7566 49.3188V32.2849C48.0844 32.2851 44.2832 36.1058 44.2832 40.802Z" fill="#4C4C4C"/>
<path d="M52.7561 45.5332L49.9316 40.8016L52.7561 36.0701C55.3517 36.0701 57.4635 38.1927 57.4635 40.8016C57.4635 43.4106 55.3517 45.5332 52.7561 45.5332Z" fill="#CCCCCC"/>
<path d="M48.0488 40.8016C48.0488 43.4106 50.1606 45.5332 52.7562 45.5332V36.0701C50.1606 36.0701 48.0488 38.1927 48.0488 40.8016Z" fill="white"/>
</svg>
