<svg width="51" height="36" viewBox="0 0 51 36" fill="none" xmlns="http://www.w3.org/2000/svg">
<rect x="0.75" y="0.75" width="49.5" height="34.5" rx="5.25" fill="white" stroke="black" stroke-width="1.5"/>
<path fill-rule="evenodd" clip-rule="evenodd" d="M16.1256 23.7874H13.036L10.7191 14.6886C10.6092 14.27 10.3757 13.9 10.0322 13.7256C9.17508 13.2874 8.23057 12.9386 7.2002 12.7627V12.4124H12.1773C12.8642 12.4124 13.3794 12.9386 13.4653 13.5497L14.6674 20.113L17.7555 12.4124H20.7592L16.1256 23.7874ZM22.477 23.7874H19.5591L21.9618 12.4124H24.8797L22.477 23.7874ZM28.654 15.5637C28.7398 14.9511 29.255 14.6008 29.8561 14.6008C30.8006 14.5128 31.8295 14.6887 32.6881 15.1255L33.2033 12.6764C32.3446 12.3261 31.4001 12.1501 30.543 12.1501C27.711 12.1501 25.6502 13.7258 25.6502 15.9125C25.6502 17.5761 27.1099 18.4496 28.1403 18.9758C29.255 19.5005 29.6843 19.8508 29.5985 20.3755C29.5985 21.1625 28.7398 21.5128 27.8827 21.5128C26.8523 21.5128 25.822 21.2505 24.879 20.8122L24.3638 23.2628C25.3941 23.6996 26.5089 23.8755 27.5392 23.8755C30.7147 23.9619 32.6881 22.3878 32.6881 20.0252C32.6881 17.0499 28.654 16.8755 28.654 15.5637ZM42.8998 23.7874L40.5829 12.4124H38.0944C37.5792 12.4124 37.064 12.7627 36.8923 13.2874L32.6021 23.7874H35.6058L36.2053 22.1253H39.896L40.2395 23.7874H42.8998ZM38.5246 15.4757L39.3817 19.7628H36.979L38.5246 15.4757Z" fill="#172B85"/>
</svg>
