<svg width="52" height="36" viewBox="0 0 52 36" fill="none" xmlns="http://www.w3.org/2000/svg">
<rect x="1.25" y="0.75" width="49.5" height="34.5" rx="5.25" fill="white" stroke="black" stroke-width="1.5"/>
<path fill-rule="evenodd" clip-rule="evenodd" d="M26.2687 25.2444C24.4926 26.7416 22.1886 27.6454 19.671 27.6454C14.0537 27.6454 9.5 23.1459 9.5 17.5954C9.5 12.0449 14.0537 7.54541 19.671 7.54541C22.1886 7.54541 24.4926 8.44923 26.2687 9.94641C28.0448 8.44923 30.3488 7.54541 32.8663 7.54541C38.4837 7.54541 43.0374 12.0449 43.0374 17.5954C43.0374 23.1459 38.4837 27.6454 32.8663 27.6454C30.3488 27.6454 28.0448 26.7416 26.2687 25.2444Z" fill="#ED0006"/>
<path fill-rule="evenodd" clip-rule="evenodd" d="M26.2686 25.245C28.4557 23.4017 29.8427 20.6586 29.8427 17.5954C29.8427 14.5322 28.4557 11.7892 26.2686 9.9458C28.0446 8.44899 30.3482 7.54541 32.8655 7.54541C38.4828 7.54541 43.0365 12.0449 43.0365 17.5954C43.0365 23.1459 38.4828 27.6454 32.8655 27.6454C30.3482 27.6454 28.0446 26.7418 26.2686 25.245Z" fill="#F9A000"/>
<path fill-rule="evenodd" clip-rule="evenodd" d="M26.2687 25.2445C28.4555 23.4012 29.8421 20.6584 29.8421 17.5955C29.8421 14.5327 28.4555 11.7899 26.2687 9.94653C24.0819 11.7899 22.6953 14.5327 22.6953 17.5955C22.6953 20.6584 24.0819 23.4012 26.2687 25.2445Z" fill="#FF5E00"/>
</svg>
