<svg width="73" height="73" viewBox="0 0 73 73" fill="none" xmlns="http://www.w3.org/2000/svg">
<g clip-path="url(#clip0_217_5449)">
<path d="M54.4355 20.4136C54.4355 26.8097 51.4416 32.571 46.8144 36.2908L34.0219 40.8271L21.2295 36.2908C16.6022 32.571 13.6084 26.8097 13.6084 20.4136C13.6084 9.16327 22.772 0 34.0219 0C45.2719 0 54.4355 9.16327 54.4355 20.4136Z" fill="#F2F2F2"/>
<path d="M54.4355 36.2908V45.3635L39.2487 49.8998L22.6811 45.3635H13.6084V36.2908H21.2295L34.0219 40.8271L46.8144 36.2908H54.4355Z" fill="#C5C5C5"/>
<path d="M63.5087 54.436H49.8997L35.8468 58.9723L22.6816 54.436V45.3633H63.5087V54.436Z" fill="#F2F2F2"/>
<path d="M49.8994 63.5087L32.4444 68.0451L13.6086 63.5087H9.07227V54.436H49.8994V63.5087Z" fill="#C5C5C5"/>
<path d="M13.6084 63.5088H54.4355V72.5815H13.6084V63.5088Z" fill="#F2F2F2"/>
<path d="M46.8155 36.2908C43.3223 39.1487 38.8769 40.8271 34.023 40.8271C29.1691 40.8271 24.7235 39.1487 21.2305 36.2908H46.8155Z" fill="#9B9B9B"/>
<path d="M30.4614 42.4187H26.6946V37.2031H30.4614V34.1607H26.6946V28.6554H30.4614V15.5199H42.6793C45.7056 15.5199 48.1685 16.357 50.068 18.0311C51.9997 19.7052 52.9656 21.975 52.9656 24.8403C52.9656 26.7398 52.5148 28.3979 51.6134 29.8144C50.7441 31.231 49.5207 32.3095 47.9432 33.05C46.3978 33.7905 44.6432 34.1607 42.6793 34.1607H36.9808V37.2031H49.1505V42.4187H36.9808V47.3928H30.4614V42.4187ZM42.2447 28.6554C43.5003 28.6554 44.5144 28.3335 45.2871 27.6896C46.0598 27.0135 46.4461 26.0798 46.4461 24.8886C46.4461 23.6974 46.0598 22.7638 45.2871 22.0877C44.5144 21.3794 43.5003 21.0252 42.2447 21.0252H36.9808V28.6554H42.2447Z" fill="#C5C5C5"/>
</g>
<defs>
<clipPath id="clip0_217_5449">
<rect width="72.5815" height="72.5815" fill="white"/>
</clipPath>
</defs>
</svg>
