<svg width="40" height="50" viewBox="0 0 40 50" fill="none" xmlns="http://www.w3.org/2000/svg">
<path d="M21.0966 28.4821L21.1136 28.404C21.4432 27.0703 21.858 25.4074 21.5341 23.9007C21.3182 22.7121 20.4261 22.2489 19.6648 22.2154C18.767 22.1763 17.9659 22.6786 17.767 23.4096C17.392 24.7489 17.7273 26.5792 18.3409 28.9118C17.5682 30.7199 16.3352 33.3482 15.4318 34.9107C13.75 35.7645 11.4943 37.0815 11.1591 38.7444C11.0909 39.0513 11.1705 39.442 11.358 39.7935C11.5682 40.1842 11.9034 40.4855 12.2955 40.6306C12.4659 40.692 12.6705 40.7422 12.9091 40.7422C13.9091 40.7422 15.5284 39.9498 17.6875 36.3114C18.017 36.2054 18.358 36.0938 18.6875 35.9821C20.233 35.4688 21.8352 34.933 23.2841 34.6931C24.8864 35.5357 26.7102 36.077 27.9489 36.077C29.1761 36.077 29.6591 35.3627 29.8409 34.933C30.1591 34.1797 30.0057 33.231 29.4886 32.7232C28.7386 31.9978 26.9148 31.808 24.0739 32.154C22.6761 31.317 21.7614 30.1786 21.0966 28.4821ZM14.8636 36.9587C14.0739 38.0859 13.4773 38.6496 13.1534 38.8951C13.5341 38.2087 14.2784 37.4833 14.8636 36.9587ZM19.8409 23.817C20.1364 24.3136 20.0966 25.8147 19.8693 26.5737C19.5909 25.4632 19.5511 23.8895 19.7159 23.7054C19.7614 23.7109 19.8011 23.7444 19.8409 23.817ZM19.75 30.5413C20.358 31.5737 21.125 32.4609 21.9716 33.1194C20.7443 33.3929 19.625 33.8449 18.625 34.2467C18.3864 34.3415 18.1534 34.4364 17.9261 34.5257C18.6818 33.1808 19.3125 31.6574 19.75 30.5413ZM28.5909 34.1964C28.5966 34.2076 28.6023 34.2243 28.5682 34.2467H28.5568L28.5455 34.2634C28.5 34.2913 28.0341 34.5592 26.0284 33.7835C28.3352 33.6775 28.5852 34.1908 28.5909 34.1964ZM39.4659 12.5335L27.2386 0.524554C26.8977 0.189732 26.4375 0 25.9545 0H1.81818C0.8125 0 0 0.797991 0 1.78571V48.2143C0 49.202 0.8125 50 1.81818 50H38.1818C39.1875 50 40 49.202 40 48.2143V13.8002C40 13.3259 39.8068 12.8683 39.4659 12.5335ZM35.8068 14.6205H25.1136V4.1183L35.8068 14.6205ZM35.9091 45.9821H4.09091V4.01786H21.25V16.0714C21.25 16.693 21.5014 17.2892 21.9489 17.7287C22.3965 18.1682 23.0035 18.4152 23.6364 18.4152H35.9091V45.9821Z" fill="#C83642"/>
</svg>
