<svg width="72" height="72" viewBox="0 0 72 72" fill="none" xmlns="http://www.w3.org/2000/svg">
<g clip-path="url(#clip0_217_5444)">
<path d="M62.5885 23.195L58.5955 18.9777L59.2236 13.2352L53.9297 10.8572L52.2697 5.33893L46.5269 5.15961L42.8479 0.673114L37.464 2.73676L32.3943 0L28.1772 3.99298L22.4344 3.36487L20.0564 8.65893L14.5381 10.3189L14.3587 16.0618L9.87219 19.7407L11.9358 25.1242L9.19922 30.194L13.1922 34.4113L12.5641 40.1541L17.858 42.5318L19.518 48.0505L25.2609 48.2298L26.9209 50.2487L36.0611 45.3966L44.8669 49.5308L49.3533 50.0245L51.7313 44.7302L57.2496 43.0702L57.429 37.3276L61.9155 33.6487L59.8519 28.2649L62.5885 23.195Z" fill="#FFFA50"/>
<path d="M26.9209 50.2486V71.7838L35.8939 67.2973L44.8669 71.7838V49.5306L36.0611 45.3965L26.9209 50.2486Z" fill="#FFCE33"/>
<path d="M35.8942 8.74854C25.9789 8.74854 17.9482 16.7792 17.9482 26.6945C17.9482 33.3344 21.5823 39.0324 26.9212 42.1729V50.2486L28.9402 52.7162L34.3239 50.6522L39.3937 53.3891L43.6107 49.3962L44.8671 49.5306V42.1729C50.206 39.0324 53.8401 33.3344 53.8401 26.6945C53.8402 16.7794 45.8095 8.74854 35.8942 8.74854ZM40.2014 28.0853L41.1883 33.9626L35.8942 31.226L30.6002 33.9628L31.587 28.0855L27.3697 23.913L33.247 23.0157L35.8942 17.7215L38.5414 23.0156L44.4187 23.9129L40.2014 28.0853Z" fill="#FFA65C"/>
</g>
<defs>
<clipPath id="clip0_217_5444">
<rect width="71.7839" height="71.7839" fill="white"/>
</clipPath>
</defs>
</svg>
