<svg width="32" height="32" viewBox="0 0 32 32" fill="none" xmlns="http://www.w3.org/2000/svg">
<path d="M30.3586 23.3589V27.8102C30.3603 28.2235 30.2761 28.6325 30.1114 29.0111C29.9467 29.3898 29.7051 29.7296 29.4022 30.009C29.0992 30.2883 28.7416 30.501 28.3521 30.6334C27.9627 30.7658 27.55 30.815 27.1406 30.7778C22.5981 30.2817 18.2347 28.7215 14.401 26.2226C10.8343 23.9445 7.81034 20.905 5.54389 17.32C3.04909 13.4491 1.49653 9.04199 1.01198 4.45565C0.975093 4.04534 1.02361 3.63181 1.15443 3.24137C1.28526 2.85094 1.49554 2.49216 1.77187 2.18789C2.04821 1.88361 2.38455 1.64051 2.75948 1.47405C3.13441 1.30759 3.53972 1.22142 3.9496 1.22103H8.37817C9.09458 1.21394 9.7891 1.46894 10.3323 1.93848C10.8755 2.40803 11.2303 3.06009 11.3306 3.77312C11.5175 5.19764 11.8641 6.59633 12.3639 7.94252C12.5625 8.4736 12.6055 9.05077 12.4877 9.60565C12.37 10.1605 12.0965 10.6699 11.6996 11.0733L9.82484 12.9577C11.9263 16.6724 14.9863 19.7481 18.682 21.8603L20.5567 19.9759C20.9581 19.577 21.4648 19.3021 22.0169 19.1837C22.5689 19.0654 23.1431 19.1086 23.6715 19.3082C25.0108 19.8106 26.4024 20.159 27.8196 20.3469C28.5367 20.4485 29.1916 20.8116 29.6597 21.3669C30.1279 21.9223 30.3766 22.6312 30.3586 23.3589Z" stroke="#C82132" stroke-width="2" stroke-linecap="round" stroke-linejoin="round"/>
</svg>
