<svg width="25" height="15" viewBox="0 0 25 15" fill="none" xmlns="http://www.w3.org/2000/svg">
<path d="M12.3556 14.7244H13.8175C13.8175 14.7244 14.2595 14.6751 14.4842 14.4303C14.6922 14.2054 14.6846 13.7835 14.6846 13.7835C14.6846 13.7835 14.6555 11.8076 15.5669 11.5166C16.4646 11.2301 17.6176 13.4262 18.8394 14.2716C19.763 14.9107 20.4649 14.7706 20.4649 14.7706L23.7328 14.7244C23.7328 14.7244 25.4424 14.6181 24.632 13.2645C24.5662 13.1536 24.1594 12.2635 22.2021 10.4339C20.153 8.51817 20.4282 8.82925 22.8963 5.51669C24.3995 3.49927 25.0005 2.26727 24.8124 1.74058C24.6335 1.23854 23.5279 1.37098 23.5279 1.37098L19.8517 1.39254C19.8517 1.39254 19.5795 1.35558 19.3761 1.47724C19.1789 1.59736 19.0519 1.87456 19.0519 1.87456C19.0519 1.87456 18.4693 3.43613 17.6925 4.76362C16.0547 7.5649 15.3987 7.71274 15.1311 7.53872C14.5087 7.1337 14.6647 5.90939 14.6647 5.04082C14.6647 2.32579 15.073 1.19388 13.868 0.901277C13.4673 0.804257 13.1737 0.739576 12.1507 0.728796C10.8387 0.714936 9.72693 0.733416 9.09844 1.04296C8.67944 1.24932 8.35678 1.70978 8.55405 1.73596C8.79719 1.7683 9.3477 1.88534 9.63977 2.28575C10.0175 2.80165 10.0037 3.96282 10.0037 3.96282C10.0037 3.96282 10.2209 7.15834 9.49756 7.55566C9.00057 7.82824 8.32008 7.2723 6.8597 4.72974C6.11193 3.42843 5.54613 1.98853 5.54613 1.98853C5.54613 1.98853 5.43755 1.72056 5.24335 1.57734C5.00785 1.40332 4.67755 1.34788 4.67755 1.34788L1.18182 1.36944C1.18182 1.36944 0.657303 1.38484 0.464625 1.6143C0.293356 1.81912 0.450862 2.24109 0.450862 2.24109C0.450862 2.24109 3.18811 8.68911 6.28626 11.9401C9.12902 14.92 12.3556 14.7244 12.3556 14.7244Z" fill="#1E88E5"/>
</svg>
